<svg viewBox="0 0 108.04 55" xmlns="http://www.w3.org/2000/svg" xmlns:xlink="http://www.w3.org/1999/xlink" width="108.039978" height="55.000000" fill="none" customFrame="#000000">
	<path id="Alivio" d="M12.24 11.86L17.4 11.86L29.72 40.18L22.68 40.18L20.24 34.18L9.23998 34.18L6.87998 40.18L-2.19755e-05 40.18L12.24 11.86ZM14.64 20.1L11.2 28.9L18.12 28.9L14.64 20.1ZM31.8884 9.94L37.8884 9.94L37.8884 40.18L31.8884 40.18L31.8884 9.94ZM42.279 20.74L48.279 20.74L48.279 40.18L42.279 40.18L42.279 20.74ZM41.799 14.62C41.799 13.66 42.1324 12.8467 42.799 12.18C43.4924 11.4867 44.319 11.14 45.279 11.14C46.239 11.14 47.0524 11.4867 47.719 12.18C48.4124 12.8467 48.759 13.66 48.759 14.62C48.759 15.58 48.4124 16.4067 47.719 17.1C47.0524 17.7667 46.239 18.1 45.279 18.1C44.319 18.1 43.4924 17.7667 42.799 17.1C42.1324 16.4067 41.799 15.58 41.799 14.62ZM50.5497 20.74L57.0297 20.74L61.9497 33.94L62.0297 33.94L66.5897 20.74L72.6297 20.74L64.9497 40.18L58.5897 40.18L50.5497 20.74ZM74.8962 20.74L80.8962 20.74L80.8962 40.18L74.8962 40.18L74.8962 20.74ZM74.4162 14.62C74.4162 13.66 74.7496 12.8467 75.4162 12.18C76.1096 11.4867 76.9362 11.14 77.8962 11.14C78.8562 11.14 79.6696 11.4867 80.3362 12.18C81.0296 12.8467 81.3762 13.66 81.3762 14.62C81.3762 15.58 81.0296 16.4067 80.3362 17.1C79.6696 17.7667 78.8562 18.1 77.8962 18.1C76.9362 18.1 76.1096 17.7667 75.4162 17.1C74.7496 16.4067 74.4162 15.58 74.4162 14.62ZM84.4869 30.46C84.4869 28.9133 84.7669 27.5133 85.3269 26.26C85.8869 25.0067 86.6469 23.94 87.6069 23.06C88.5935 22.1533 89.7402 21.46 91.0469 20.98C92.3802 20.5 93.7935 20.26 95.2868 20.26C96.7802 20.26 98.1802 20.5 99.4869 20.98C100.82 21.46 101.967 22.1533 102.927 23.06C103.914 23.94 104.687 25.0067 105.247 26.26C105.807 27.5133 106.087 28.9133 106.087 30.46C106.087 32.0067 105.807 33.4067 105.247 34.66C104.687 35.9133 103.914 36.9933 102.927 37.9C101.967 38.78 100.82 39.46 99.4869 39.94C98.1802 40.42 96.7802 40.66 95.2868 40.66C93.7935 40.66 92.3802 40.42 91.0469 39.94C89.7402 39.46 88.5935 38.78 87.6069 37.9C86.6469 36.9933 85.8869 35.9133 85.3269 34.66C84.7669 33.4067 84.4869 32.0067 84.4869 30.46ZM90.4869 30.46C90.4869 31.9267 90.9002 33.1133 91.7269 34.02C92.5802 34.9267 93.7669 35.38 95.2868 35.38C96.8069 35.38 97.9802 34.9267 98.8069 34.02C99.6602 33.1133 100.087 31.9267 100.087 30.46C100.087 28.9933 99.6602 27.8067 98.8069 26.9C97.9802 25.9933 96.8069 25.54 95.2868 25.54C93.7669 25.54 92.5802 25.9933 91.7269 26.9C90.9002 27.8067 90.4869 28.9933 90.4869 30.46Z" fill="rgb(255,255,255)" fill-rule="nonzero" />
</svg>
